<svg width="41" height="41" viewBox="0 0 41 41" fill="none" xmlns="http://www.w3.org/2000/svg">
<rect x="0.817871" y="0.448486" width="40" height="40" rx="4" fill="#CF3A5E"/>
<path d="M16.0179 25.1985C16.0179 25.6339 16.3779 25.9902 16.8179 25.9902H17.6179V28.761C17.6179 29.4181 18.1539 29.9485 18.8179 29.9485C19.4819 29.9485 20.0179 29.4181 20.0179 28.761V25.9902H21.6179V28.761C21.6179 29.4181 22.1539 29.9485 22.8179 29.9485C23.4819 29.9485 24.0179 29.4181 24.0179 28.761V25.9902H24.8179C25.2579 25.9902 25.6179 25.6339 25.6179 25.1985V17.2818H16.0179V25.1985ZM14.0179 17.2818C13.3539 17.2818 12.8179 17.8122 12.8179 18.4693V24.011C12.8179 24.6681 13.3539 25.1985 14.0179 25.1985C14.6819 25.1985 15.2179 24.6681 15.2179 24.011V18.4693C15.2179 17.8122 14.6819 17.2818 14.0179 17.2818ZM27.6179 17.2818C26.9539 17.2818 26.4179 17.8122 26.4179 18.4693V24.011C26.4179 24.6681 26.9539 25.1985 27.6179 25.1985C28.2819 25.1985 28.8179 24.6681 28.8179 24.011V18.4693C28.8179 17.8122 28.2819 17.2818 27.6179 17.2818ZM23.6419 12.6585L24.6819 11.6293C24.8419 11.471 24.8419 11.2256 24.6819 11.0672C24.5219 10.9089 24.2739 10.9089 24.1139 11.0672L22.9299 12.2389C22.2979 11.9222 21.5779 11.7402 20.8179 11.7402C20.0499 11.7402 19.3299 11.9222 18.6899 12.2389L17.4979 11.0672C17.3379 10.9089 17.0899 10.9089 16.9299 11.0672C16.7699 11.2256 16.7699 11.471 16.9299 11.6293L17.9779 12.6664C16.7939 13.5293 16.0179 14.9147 16.0179 16.4902H25.6179C25.6179 14.9147 24.8419 13.5214 23.6419 12.6585ZM19.2179 14.9068H18.4179V14.1152H19.2179V14.9068ZM23.2179 14.9068H22.4179V14.1152H23.2179V14.9068Z" fill="white"/>
</svg>
