<svg width="41" height="41" viewBox="0 0 41 41" fill="none" xmlns="http://www.w3.org/2000/svg">
<rect x="0.817871" y="0.448486" width="40" height="40" rx="4" fill="#4994A8"/>
<path d="M28.0179 15.5274H25.3179V13.738C25.3179 12.7448 24.5169 11.9485 23.5179 11.9485H18.1179C17.1189 11.9485 16.3179 12.7448 16.3179 13.738V15.5274H13.6179C12.6189 15.5274 11.8179 16.3237 11.8179 17.3169V27.159C11.8179 28.1522 12.6189 28.9485 13.6179 28.9485H28.0179C29.0169 28.9485 29.8179 28.1522 29.8179 27.159V17.3169C29.8179 16.3237 29.0169 15.5274 28.0179 15.5274ZM18.1179 13.738H23.5179V15.5274H18.1179V13.738ZM28.0179 27.159H13.6179V25.3696H28.0179V27.159ZM28.0179 22.6853H13.6179V17.3169H16.3179V19.1064H18.1179V17.3169H23.5179V19.1064H25.3179V17.3169H28.0179V22.6853Z" fill="white"/>
</svg>
